<?xml version="1.0" standalone="no"?>
<!DOCTYPE svg PUBLIC "-//W3C//DTD SVG 20010904//EN"
 "http://www.w3.org/TR/2001/REC-SVG-20010904/DTD/svg10.dtd">
<svg version="1.0" xmlns="http://www.w3.org/2000/svg"
 width="249.000000pt" height="355.000000pt" viewBox="0 0 249.000000 355.000000"
 preserveAspectRatio="xMidYMid meet">
<metadata>
Created by potrace 1.15, written by Peter Selinger 2001-2017
</metadata>
<g transform="translate(0.000000,355.000000) scale(0.100000,-0.100000)"
fill="#000000" stroke="none">
<path d="M1125 3211 c-39 -18 -148 -122 -401 -382 -132 -135 -143 -158 -128
-255 7 -49 57 -114 106 -138 40 -21 130 -20 171 0 40 20 447 422 490 484 28
39 31 52 31 111 -1 53 -6 74 -25 100 -63 92 -152 121 -244 80z"/>
<path d="M1520 2789 c-73 -44 -100 -89 -100 -169 0 -57 21 -114 53 -147 71
-70 212 -70 283 1 86 86 68 242 -35 308 -58 36 -147 39 -201 7z"/>
<path d="M319 2393 c-34 -5 -103 -65 -123 -105 -37 -74 -8 -194 59 -242 55
-40 134 -57 173 -37 9 5 30 15 46 22 16 8 44 34 62 59 29 39 34 53 34 107 0
112 -66 188 -171 197 -30 2 -66 2 -80 -1z"/>
<path d="M1150 2394 c-78 -30 -109 -57 -136 -123 -16 -39 -19 -117 -4 -126 6
-3 10 -13 10 -22 0 -23 80 -97 121 -111 51 -17 83 -15 137 10 53 25 58 29 91
77 32 44 34 149 5 200 -34 60 -82 90 -149 96 -33 2 -67 2 -75 -1z"/>
<path d="M1970 2392 c-43 -12 -84 -42 -110 -80 -19 -29 -24 -51 -24 -103 -1
-40 5 -77 14 -95 32 -63 113 -113 183 -114 41 0 115 38 144 75 27 34 53 97 53
130 0 58 -52 142 -109 173 -27 16 -115 24 -151 14z"/>
<path d="M705 1969 c-79 -39 -110 -94 -109 -191 0 -60 4 -72 30 -105 17 -20
39 -41 49 -47 11 -6 23 -15 26 -20 4 -5 39 -9 77 -10 102 0 148 28 190 116 27
59 28 96 1 152 -50 108 -166 154 -264 105z"/>
<path d="M1531 1968 c-64 -31 -480 -448 -509 -511 -43 -91 -15 -186 72 -244
41 -28 57 -33 107 -33 33 0 69 6 82 12 43 24 498 483 513 517 8 18 14 57 14
86 0 43 -6 62 -32 101 -59 87 -157 115 -247 72z"/>
<path d="M680 662 c0 -70 -10 -92 -42 -92 -14 0 -18 -8 -18 -32 0 -26 6 -37
30 -50 29 -17 30 -19 30 -98 0 -66 4 -86 23 -115 27 -43 92 -75 152 -75 l45 0
0 45 0 45 -54 0 c-49 0 -57 3 -76 30 -17 24 -20 41 -18 97 l3 68 70 5 70 5 3
37 3 37 -73 3 -73 3 -3 78 -3 77 -34 0 -35 0 0 -68z"/>
<path d="M980 466 l0 -266 39 0 39 0 4 131 c3 125 4 131 28 149 33 25 65 25
101 -1 l29 -20 0 -130 0 -129 45 0 45 0 0 111 c0 123 -11 173 -45 213 -27 32
-116 68 -136 55 -8 -5 -26 -9 -41 -9 -27 0 -27 1 -30 78 l-3 77 -37 3 -38 3 0
-265z"/>
<path d="M240 455 l0 -255 165 0 165 0 0 45 0 45 -120 0 -121 0 3 58 3 57 78
3 77 3 0 39 0 40 -64 0 c-93 0 -96 2 -96 71 l0 59 120 0 120 0 0 45 0 45 -165
0 -165 0 0 -255z"/>
<path d="M1560 701 c-8 -5 -28 -15 -45 -22 -81 -37 -135 -128 -135 -227 0
-106 54 -192 152 -241 36 -18 171 -18 207 0 49 26 51 32 51 139 l0 101 -32 -3
-33 -3 -5 -73 -5 -74 -39 -13 c-56 -19 -119 -2 -167 46 -81 81 -57 217 49 277
34 19 116 15 157 -8 l35 -20 20 33 c11 17 19 36 17 40 -2 8 -29 24 -79 49 -22
10 -128 10 -148 -1z"/>
<path d="M1985 577 c-58 -35 -84 -60 -104 -101 -36 -79 -23 -161 36 -222 43
-44 67 -54 129 -54 115 0 184 72 184 194 0 72 -9 94 -55 141 -49 50 -142 70
-190 42z m144 -114 c53 -64 32 -145 -45 -178 -29 -12 -39 -12 -67 0 -52 21
-69 48 -70 105 -1 42 4 55 28 80 24 25 37 30 76 30 43 0 51 -4 78 -37z"/>
</g>
</svg>
